{
  "accessors": [
    {
      "bufferView": 2,
      "componentType": 5126,
      "count": 48,
      "max": [
        -0.8086889982223511,
        2.1207659244537354,
        -0.4730199873447418
      ],
      "min": [
        -0.814179003238678,
        1.9708260297775269,
        -0.6229270100593567
      ],
      "type": "VEC3"
    },
    {
      "bufferView": 1,
      "componentType": 5126,
      "count": 48,
      "max": [
        0.0,
        0.0
      ],
      "min": [
        0.0,
        0.0
      ],
      "type": "VEC2"
    },
    {
      "bufferView": 0,
      "componentType": 5125,
      "count": 96,
      "type": "SCALAR"
    },
    {
      "bufferView": 2,
      "byteOffset": 576,
      "componentType": 5126,
      "count": 8608,
      "max": [
        -0.19158299267292023,
        3.3179359436035156,
        0.2606230080127716
      ],
      "min": [
        -1.9256919622421265,
        1.9175180196762085,
        -1.3524839878082275
      ],
      "type": "VEC3"
    },
    {
      "bufferView": 2,
      "byteOffset": 103872,
      "componentType": 5126,
      "count": 8608,
      "max": [
        0.9995667934417725,
        0.999686062335968,
        0.999826967716217
      ],
      "min": [
        -0.9996667504310608,
        -0.9995103478431702,
        -0.999919056892395
      ],
      "type": "VEC3"
    },
    {
      "bufferView": 1,
      "byteOffset": 384,
      "componentType": 5126,
      "count": 8608,
      "max": [
        0.8711569905281067,
        0.9992449879646301
      ],
      "min": [
        0.00022699999681208283,
        0.00022699999681208283
      ],
      "type": "VEC2"
    },
    {
      "bufferView": 0,
      "byteOffset": 384,
      "componentType": 5125,
      "count": 46764,
      "type": "SCALAR"
    },
    {
      "bufferView": 2,
      "byteOffset": 207168,
      "componentType": 5126,
      "count": 866,
      "max": [
        0.030880000442266464,
        2.8967530727386475,
        -1.3691719770431519
      ],
      "min": [
        -1.4100509881973267,
        1.4558219909667969,
        -1.4475289583206177
      ],
      "type": "VEC3"
    },
    {
      "bufferView": 2,
      "byteOffset": 217560,
      "componentType": 5126,
      "count": 866,
      "max": [
        0.9984139204025269,
        0.9984139204025269,
        1.0
      ],
      "min": [
        -0.9984139204025269,
        -0.9984139204025269,
        -1.0
      ],
      "type": "VEC3"
    },
    {
      "bufferView": 1,
      "byteOffset": 69248,
      "componentType": 5126,
      "count": 866,
      "max": [
        1.3056830167770386,
        1.836143970489502
      ],
      "min": [
        -0.06726899743080139,
        -0.869238018989563
      ],
      "type": "VEC2"
    },
    {
      "bufferView": 0,
      "byteOffset": 187440,
      "componentType": 5125,
      "count": 4992,
      "type": "SCALAR"
    },
    {
      "bufferView": 2,
      "byteOffset": 227952,
      "componentType": 5126,
      "count": 540,
      "max": [
        -0.5058519840240479,
        2.3092639446258545,
        0.7762389779090881
      ],
      "min": [
        -0.9725310206413269,
        2.1145849227905273,
        0.5917930006980896
      ],
      "type": "VEC3"
    },
    {
      "bufferView": 2,
      "byteOffset": 234432,
      "componentType": 5126,
      "count": 540,
      "max": [
        0.9994814991950989,
        0.9994814991950989,
        1.0
      ],
      "min": [
        -0.9994814991950989,
        -0.9994814991950989,
        -1.0
      ],
      "type": "VEC3"
    },
    {
      "bufferView": 1,
      "byteOffset": 76176,
      "componentType": 5126,
      "count": 540,
      "max": [
        0.9001460075378418,
        0.9978610277175903
      ],
      "min": [
        0.004792999941855669,
        0.03329399973154068
      ],
      "type": "VEC2"
    },
    {
      "bufferView": 0,
      "byteOffset": 207408,
      "componentType": 5125,
      "count": 2880,
      "type": "SCALAR"
    },
    {
      "bufferView": 2,
      "byteOffset": 240912,
      "componentType": 5126,
      "count": 6530,
      "max": [
        -0.04869899898767471,
        2.908639907836914,
        1.0889019966125488
      ],
      "min": [
        -1.3916620016098022,
        1.4655319452285767,
        0.16752399504184723
      ],
      "type": "VEC3"
    },
    {
      "bufferView": 2,
      "byteOffset": 319272,
      "componentType": 5126,
      "count": 6530,
      "max": [
        0.9995033144950867,
        0.9996970295906067,
        0.9998653531074524
      ],
      "min": [
        -0.9998343586921692,
        -0.9992251396179199,
        -0.999992847442627
      ],
      "type": "VEC3"
    },
    {
      "bufferView": 1,
      "byteOffset": 80496,
      "componentType": 5126,
      "count": 6530,
      "max": [
        0.9861459732055664,
        0.7842730283737183
      ],
      "min": [
        0.008558999747037888,
        0.04767800122499466
      ],
      "type": "VEC2"
    },
    {
      "bufferView": 0,
      "byteOffset": 218928,
      "componentType": 5125,
      "count": 38112,
      "type": "SCALAR"
    },
    {
      "bufferView": 2,
      "byteOffset": 397632,
      "componentType": 5126,
      "count": 82,
      "max": [
        -0.4656060039997101,
        2.1183369159698486,
        0.5304059982299805
      ],
      "min": [
        -1.0159729719161987,
        2.0096170902252197,
        0.4264340102672577
      ],
      "type": "VEC3"
    },
    {
      "bufferView": 2,
      "byteOffset": 398616,
      "componentType": 5126,
      "count": 82,
      "max": [
        0.9820013046264648,
        0.790925145149231,
        0.7347224354743958
      ],
      "min": [
        -0.9785499572753906,
        -0.9345288276672363,
        -0.9773428440093994
      ],
      "type": "VEC3"
    },
    {
      "bufferView": 0,
      "byteOffset": 371376,
      "componentType": 5125,
      "count": 432,
      "type": "SCALAR"
    },
    {
      "bufferView": 2,
      "byteOffset": 399600,
      "componentType": 5126,
      "count": 2496,
      "max": [
        -0.12415000051259995,
        2.720733880996704,
        1.1410950422286987
      ],
      "min": [
        -0.7852500081062317,
        2.2243540287017822,
        0.7364829778671265
      ],
      "type": "VEC3"
    },
    {
      "bufferView": 2,
      "byteOffset": 429552,
      "componentType": 5126,
      "count": 2496,
      "max": [
        0.9996452927589417,
        0.9999830722808838,
        0.9978039264678955
      ],
      "min": [
        -0.9993896484375,
        -0.9994101524353027,
        -0.9959927201271057
      ],
      "type": "VEC3"
    },
    {
      "bufferView": 0,
      "byteOffset": 373104,
      "componentType": 5125,
      "count": 13248,
      "type": "SCALAR"
    },
    {
      "bufferView": 2,
      "byteOffset": 459504,
      "componentType": 5126,
      "count": 2496,
      "max": [
        -0.06033800169825554,
        2.9001269340515137,
        0.9863560199737549
      ],
      "min": [
        -1.4156149625778198,
        2.38092303276062,
        0.6533660292625427
      ],
      "type": "VEC3"
    },
    {
      "bufferView": 2,
      "byteOffset": 489456,
      "componentType": 5126,
      "count": 2496,
      "max": [
        0.901436984539032,
        0.9984754920005798,
        0.9995333552360535
      ],
      "min": [
        -0.8960915207862854,
        -0.999346911907196,
        -0.999215841293335
      ],
      "type": "VEC3"
    },
    {
      "bufferView": 0,
      "byteOffset": 426096,
      "componentType": 5125,
      "count": 13248,
      "type": "SCALAR"
    },
    {
      "bufferView": 2,
      "byteOffset": 519408,
      "componentType": 5126,
      "count": 2496,
      "max": [
        -0.32141900062561035,
        2.8837289810180664,
        0.7259799838066101
      ],
      "min": [
        -1.3233740329742432,
        1.699681043624878,
        0.3528299927711487
      ],
      "type": "VEC3"
    },
    {
      "bufferView": 2,
      "byteOffset": 549360,
      "componentType": 5126,
      "count": 2496,
      "max": [
        0.9384850859642029,
        0.9988937973976135,
        0.9996771216392517
      ],
      "min": [
        -0.9451087117195129,
        -0.9999123811721802,
        -0.999984622001648
      ],
      "type": "VEC3"
    },
    {
      "bufferView": 0,
      "byteOffset": 479088,
      "componentType": 5125,
      "count": 13248,
      "type": "SCALAR"
    },
    {
      "bufferView": 2,
      "byteOffset": 579312,
      "componentType": 5126,
      "count": 1872,
      "max": [
        -0.8075929880142212,
        2.138803005218506,
        0.5487719774246216
      ],
      "min": [
        -1.1191860437393188,
        1.688730001449585,
        0.35163798928260803
      ],
      "type": "VEC3"
    },
    {
      "bufferView": 2,
      "byteOffset": 601776,
      "componentType": 5126,
      "count": 1872,
      "max": [
        0.9606155753135681,
        0.9994324445724487,
        0.9983018040657043
      ],
      "min": [
        -0.9688055515289307,
        -0.9983416795730591,
        -0.9988672733306885
      ],
      "type": "VEC3"
    },
    {
      "bufferView": 0,
      "byteOffset": 532080,
      "componentType": 5125,
      "count": 9936,
      "type": "SCALAR"
    }
  ],
  "asset": {
    "extras": {
      "author": "FR Animation (https://sketchfab.com/fr.animation)",
      "license": "CC-BY-4.0 (http://creativecommons.org/licenses/by/4.0/)",
      "source": "https://sketchfab.com/3d-models/racoon-cartoon-style-ef4c7e106f31441cbe6bc6e6f97b3e1a",
      "title": "Racoon cartoon style"
    },
    "generator": "Sketchfab-12.68.0",
    "version": "2.0"
  },
  "bufferViews": [
    {
      "buffer": 0,
      "byteLength": 571824,
      "name": "floatBufferViews",
      "target": 34963
    },
    {
      "buffer": 0,
      "byteLength": 132736,
      "byteOffset": 571824,
      "byteStride": 8,
      "name": "floatBufferViews",
      "target": 34962
    },
    {
      "buffer": 0,
      "byteLength": 624240,
      "byteOffset": 704560,
      "byteStride": 12,
      "name": "floatBufferViews",
      "target": 34962
    }
  ],
  "buffers": [
    {
      "byteLength": 1328800,
      "uri": "scene.bin"
    }
  ],
  "images": [
    {
      "uri": "textures/Badan_baseColor.png"
    },
    {
      "uri": "textures/Material.004_baseColor.jpeg"
    },
    {
      "uri": "textures/Material.004_metallicRoughness.png"
    },
    {
      "uri": "textures/mata_baseColor.png"
    },
    {
      "uri": "textures/mata_metallicRoughness.png"
    },
    {
      "uri": "textures/muka_baseColor.png"
    }
  ],
  "materials": [
    {
      "doubleSided": true,
      "name": "Badan",
      "pbrMetallicRoughness": {
        "baseColorTexture": {
          "index": 0
        },
        "metallicFactor": 0.0,
        "roughnessFactor": 0.7883003049
      }
    },
    {
      "doubleSided": true,
      "name": "Material.004",
      "pbrMetallicRoughness": {
        "baseColorTexture": {
          "index": 1
        },
        "metallicFactor": 0.5992759146,
        "metallicRoughnessTexture": {
          "index": 2
        }
      }
    },
    {
      "doubleSided": true,
      "name": "gigi",
      "pbrMetallicRoughness": {
        "metallicFactor": 0.0,
        "roughnessFactor": 0.4102515244
      }
    },
    {
      "doubleSided": true,
      "name": "mata",
      "pbrMetallicRoughness": {
        "baseColorTexture": {
          "index": 3
        },
        "metallicFactor": 0.0,
        "metallicRoughnessTexture": {
          "index": 4
        }
      }
    },
    {
      "doubleSided": true,
      "name": "muka",
      "pbrMetallicRoughness": {
        "baseColorTexture": {
          "index": 5
        },
        "metallicFactor": 0.0,
        "roughnessFactor": 0.5678197513
      }
    },
    {
      "doubleSided": true,
      "name": "rambut_bulu",
      "pbrMetallicRoughness": {
        "baseColorFactor": [
          0.0,
          0.0,
          0.0,
          1.0
        ],
        "metallicFactor": 0.0,
        "roughnessFactor": 0.6
      }
    }
  ],
  "meshes": [
    {
      "name": "Object_0",
      "primitives": [
        {
          "attributes": {
            "POSITION": 0,
            "TEXCOORD_0": 1
          },
          "indices": 2,
          "material": 0,
          "mode": 1
        }
      ]
    },
    {
      "name": "Object_1",
      "primitives": [
        {
          "attributes": {
            "NORMAL": 4,
            "POSITION": 3,
            "TEXCOORD_0": 5
          },
          "indices": 6,
          "material": 0,
          "mode": 4
        }
      ]
    },
    {
      "name": "Object_2",
      "primitives": [
        {
          "attributes": {
            "NORMAL": 8,
            "POSITION": 7,
            "TEXCOORD_0": 9
          },
          "indices": 10,
          "material": 1,
          "mode": 4
        }
      ]
    },
    {
      "name": "Object_3",
      "primitives": [
        {
          "attributes": {
            "NORMAL": 12,
            "POSITION": 11,
            "TEXCOORD_0": 13
          },
          "indices": 14,
          "material": 3,
          "mode": 4
        }
      ]
    },
    {
      "name": "Object_4",
      "primitives": [
        {
          "attributes": {
            "NORMAL": 16,
            "POSITION": 15,
            "TEXCOORD_0": 17
          },
          "indices": 18,
          "material": 4,
          "mode": 4
        }
      ]
    },
    {
      "name": "Object_5",
      "primitives": [
        {
          "attributes": {
            "NORMAL": 20,
            "POSITION": 19
          },
          "indices": 21,
          "material": 2,
          "mode": 4
        }
      ]
    },
    {
      "name": "Object_6",
      "primitives": [
        {
          "attributes": {
            "NORMAL": 23,
            "POSITION": 22
          },
          "indices": 24,
          "material": 5,
          "mode": 4
        }
      ]
    },
    {
      "name": "Object_7",
      "primitives": [
        {
          "attributes": {
            "NORMAL": 26,
            "POSITION": 25
          },
          "indices": 27,
          "material": 5,
          "mode": 4
        }
      ]
    },
    {
      "name": "Object_8",
      "primitives": [
        {
          "attributes": {
            "NORMAL": 29,
            "POSITION": 28
          },
          "indices": 30,
          "material": 5,
          "mode": 4
        }
      ]
    },
    {
      "name": "Object_9",
      "primitives": [
        {
          "attributes": {
            "NORMAL": 32,
            "POSITION": 31
          },
          "indices": 33,
          "material": 5,
          "mode": 4
        }
      ]
    }
  ],
  "nodes": [
    {
      "children": [
        1
      ],
      "matrix": [
        1.0,
        0.0,
        0.0,
        0.0,
        0.0,
        2.220446049250313e-16,
        -1.0,
        0.0,
        0.0,
        1.0,
        2.220446049250313e-16,
        0.0,
        0.0,
        0.0,
        0.0,
        1.0
      ],
      "name": "Sketchfab_model"
    },
    {
      "children": [
        2,
        3,
        4,
        5,
        6,
        7,
        8,
        9,
        10,
        11
      ],
      "name": "sigung.obj.cleaner.materialmerger.gles"
    },
    {
      "mesh": 0,
      "name": "Object_2"
    },
    {
      "mesh": 1,
      "name": "Object_3"
    },
    {
      "mesh": 2,
      "name": "Object_4"
    },
    {
      "mesh": 3,
      "name": "Object_5"
    },
    {
      "mesh": 4,
      "name": "Object_6"
    },
    {
      "mesh": 5,
      "name": "Object_7"
    },
    {
      "mesh": 6,
      "name": "Object_8"
    },
    {
      "mesh": 7,
      "name": "Object_9"
    },
    {
      "mesh": 8,
      "name": "Object_10"
    },
    {
      "mesh": 9,
      "name": "Object_11"
    }
  ],
  "samplers": [
    {
      "magFilter": 9729,
      "minFilter": 9987,
      "wrapS": 10497,
      "wrapT": 10497
    }
  ],
  "scene": 0,
  "scenes": [
    {
      "name": "Sketchfab_Scene",
      "nodes": [
        0
      ]
    }
  ],
  "textures": [
    {
      "sampler": 0,
      "source": 0
    },
    {
      "sampler": 0,
      "source": 1
    },
    {
      "sampler": 0,
      "source": 2
    },
    {
      "sampler": 0,
      "source": 3
    },
    {
      "sampler": 0,
      "source": 4
    },
    {
      "sampler": 0,
      "source": 5
    }
  ]
}
